# xmcd
#
# Track frame offsets:
#	183
#	39320
#	78330
#	97933
#	133893
#	162945
#
# Disc length: 2432 seconds
#
# Revision: 3
# Processed by: cddbd v1.4b42PL1 Copyright (c) Steve Scherf et al.
# Submitted via: EasyCDDAExtractor 4.5.0.2
#
DISCID=40097e06
DTITLE=Wallenstein - Mother Universe
DYEAR=1972
DGENRE=Progressive Rock
TTITLE0=Mother universe
TTITLE1=Braintrain
TTITLE2=Shakespearesque
TTITLE3=Dedicated to mystery land
TTITLE4=Relics of past
TTITLE5=Golden antenna
EXTD=
EXTT0=
EXTT1=
EXTT2=
EXTT3=
EXTT4=
EXTT5=
PLAYORDER=
